<?xml version="1.0" encoding="utf-8"?>
<!-- Generator: Adobe Illustrator 24.1.3, SVG Export Plug-In . SVG Version: 6.00 Build 0)  -->
<svg version="1.1" id="Layer_1" xmlns="http://www.w3.org/2000/svg" xmlns:xlink="http://www.w3.org/1999/xlink" x="0px" y="0px"
	 viewBox="0 0 321 82" style="enable-background:new 0 0 321 82;" xml:space="preserve">
<style type="text/css">
	.st0{fill:#FFFFFF;}
	.st1{fill:#3FA9F5;}
</style>
<g>
	<g>
		<g>
			<rect x="213" y="7.19" class="st0" width="15.44" height="15.44"/>
			<polygon class="st0" points="208,27.63 208,43.08 192.56,43.08 192.56,27.63 208,27.63 208,12.19 192.56,12.19 177.12,12.19 
				177.12,27.63 177.12,43.08 177.12,58.52 177.12,73.96 192.56,73.96 192.56,58.52 208,58.52 208,73.96 223.45,73.96 223.45,58.52 
				223.45,43.08 223.45,27.63 			"/>
		</g>
		<g>
			<path class="st0" d="M31.31,66.04H20.73l-2.06,7.86h-8.21l12.01-38.43h7.1l12.09,38.43h-8.29L31.31,66.04z M22.42,59.58h7.18
				l-3.59-13.7L22.42,59.58z"/>
			<path class="st0" d="M53.11,38.33v7.02h3.83v5.59h-3.83v14.19c0,1.13,0.15,1.9,0.46,2.33c0.31,0.42,0.9,0.63,1.78,0.63
				c0.72,0,1.31-0.06,1.77-0.18l-0.05,5.81c-1.27,0.48-2.64,0.71-4.12,0.71c-4.82,0-7.26-2.77-7.31-8.3V50.95h-3.3v-5.59h3.3v-7.02
				H53.11z"/>
			<path class="st0" d="M72.56,74.44c-3.84,0-6.83-1.14-8.97-3.43c-2.15-2.29-3.22-5.56-3.22-9.82v-2.27c0-4.5,0.99-7.98,2.96-10.42
				c1.97-2.45,4.79-3.67,8.47-3.67c3.59,0,6.29,1.15,8.1,3.44c1.81,2.29,2.74,5.69,2.77,10.18v3.66H67.81
				c0.11,2.12,0.57,3.67,1.4,4.65c0.83,0.98,2.1,1.47,3.83,1.47c2.5,0,4.58-0.85,6.25-2.56l2.93,4.51
				c-0.92,1.27-2.24,2.29-3.98,3.07S74.6,74.44,72.56,74.44z M67.87,56.91h7.47v-0.69c-0.04-1.71-0.32-3-0.84-3.88
				c-0.53-0.88-1.44-1.32-2.74-1.32c-1.3,0-2.25,0.47-2.84,1.4C68.32,53.36,67.97,54.85,67.87,56.91z"/>
			<path class="st0" d="M93.73,45.35l0.21,2.82c1.69-2.23,3.9-3.35,6.62-3.35c4.91,0,7.43,3.44,7.57,10.32v18.76h-7.5V55.7
				c0-1.62-0.24-2.79-0.73-3.52c-0.48-0.73-1.33-1.1-2.55-1.1c-1.35,0-2.41,0.7-3.17,2.08v20.74h-7.5V45.35H93.73z"/>
			<path class="st0" d="M125.03,74.44c-3.84,0-6.83-1.14-8.97-3.43c-2.15-2.29-3.22-5.56-3.22-9.82v-2.27
				c0-4.5,0.99-7.98,2.96-10.42c1.97-2.45,4.79-3.67,8.47-3.67c3.59,0,6.29,1.15,8.1,3.44c1.81,2.29,2.74,5.69,2.77,10.18v3.66
				h-14.86c0.11,2.12,0.57,3.67,1.4,4.65c0.83,0.98,2.1,1.47,3.83,1.47c2.5,0,4.58-0.85,6.25-2.56l2.93,4.51
				c-0.92,1.27-2.24,2.29-3.98,3.07S127.07,74.44,125.03,74.44z M120.33,56.91h7.47v-0.69c-0.04-1.71-0.32-3-0.84-3.88
				c-0.53-0.88-1.44-1.32-2.74-1.32c-1.3,0-2.25,0.47-2.84,1.4C120.79,53.36,120.44,54.85,120.33,56.91z"/>
			<path class="st0" d="M152.93,73.91c-0.21-0.44-0.42-1.18-0.63-2.22c-1.34,1.83-3.15,2.74-5.44,2.74c-2.39,0-4.38-0.79-5.95-2.38
				s-2.36-3.63-2.36-6.15c0-2.99,0.95-5.3,2.86-6.94c1.91-1.64,4.66-2.47,8.25-2.51h2.27v-2.3c0-1.28-0.22-2.19-0.66-2.72
				c-0.44-0.53-1.08-0.79-1.93-0.79c-1.87,0-2.8,1.09-2.8,3.27h-7.47c0-2.64,0.99-4.82,2.97-6.53c1.98-1.72,4.48-2.57,7.51-2.57
				c3.13,0,5.56,0.81,7.27,2.44c1.72,1.63,2.57,3.95,2.57,6.98v13.43c0.04,2.46,0.39,4.39,1.06,5.78v0.45H152.93z M148.52,68.58
				c0.83,0,1.53-0.17,2.11-0.5c0.58-0.33,1.01-0.73,1.29-1.19v-5.94h-1.79c-1.27,0-2.27,0.41-3,1.21c-0.73,0.81-1.1,1.89-1.1,3.25
				C146.04,67.52,146.87,68.58,148.52,68.58z"/>
		</g>
	</g>
	<g>
		<path class="st1" d="M242.21,22.15c-0.88-0.37-1.56-0.91-2.04-1.61c-0.48-0.7-0.71-1.51-0.71-2.43v-0.48
			c0-0.07,0.03-0.14,0.08-0.19c0.05-0.05,0.11-0.08,0.19-0.08h2.51c0.07,0,0.14,0.03,0.19,0.08c0.05,0.05,0.08,0.11,0.08,0.19v0.33
			c0,0.59,0.27,1.08,0.81,1.49c0.54,0.4,1.28,0.6,2.2,0.6c0.78,0,1.36-0.17,1.74-0.5c0.38-0.33,0.57-0.74,0.57-1.22
			c0-0.35-0.12-0.65-0.35-0.89c-0.23-0.24-0.55-0.45-0.96-0.64c-0.4-0.18-1.04-0.44-1.92-0.76c-0.98-0.34-1.81-0.68-2.5-1.03
			s-1.25-0.83-1.72-1.44s-0.69-1.36-0.69-2.26c0-0.88,0.23-1.65,0.68-2.31c0.45-0.66,1.09-1.17,1.89-1.52s1.74-0.53,2.79-0.53
			c1.11,0,2.11,0.2,2.98,0.59s1.55,0.95,2.05,1.66c0.49,0.71,0.74,1.54,0.74,2.47v0.33c0,0.07-0.03,0.14-0.08,0.19
			c-0.05,0.05-0.11,0.08-0.19,0.08h-2.53c-0.07,0-0.14-0.03-0.19-0.08c-0.05-0.05-0.08-0.11-0.08-0.19v-0.18
			c0-0.62-0.25-1.14-0.76-1.57c-0.51-0.43-1.2-0.65-2.08-0.65c-0.69,0-1.23,0.15-1.62,0.44c-0.39,0.29-0.58,0.7-0.58,1.21
			c0,0.37,0.11,0.67,0.34,0.92c0.23,0.25,0.56,0.47,1.01,0.67c0.45,0.2,1.14,0.47,2.08,0.8c1.04,0.38,1.86,0.72,2.45,1.01
			c0.59,0.29,1.13,0.73,1.61,1.31c0.48,0.58,0.71,1.33,0.71,2.25c0,1.38-0.51,2.47-1.52,3.27c-1.01,0.8-2.38,1.2-4.11,1.2
			C244.11,22.71,243.09,22.53,242.21,22.15z"/>
		<path class="st1" d="M263.73,7.22c0.05,0.05,0.08,0.11,0.08,0.19v2.16c0,0.07-0.03,0.14-0.08,0.19c-0.05,0.05-0.11,0.08-0.19,0.08
			h-3.94c-0.07,0-0.11,0.04-0.11,0.11v12.34c0,0.07-0.03,0.14-0.08,0.19c-0.05,0.05-0.11,0.08-0.19,0.08h-2.57
			c-0.07,0-0.14-0.03-0.19-0.08c-0.05-0.05-0.08-0.11-0.08-0.19V9.93c0-0.07-0.04-0.11-0.11-0.11h-3.83c-0.07,0-0.14-0.03-0.19-0.08
			c-0.05-0.05-0.08-0.11-0.08-0.19V7.4c0-0.07,0.03-0.14,0.08-0.19c0.05-0.05,0.11-0.08,0.19-0.08h11.09
			C263.62,7.14,263.68,7.16,263.73,7.22z"/>
		<path class="st1" d="M268.4,22.05c-0.86-0.44-1.53-1.06-2-1.86s-0.71-1.72-0.71-2.76V7.4c0-0.07,0.03-0.14,0.08-0.19
			c0.05-0.05,0.11-0.08,0.19-0.08h2.57c0.07,0,0.14,0.03,0.19,0.08c0.05,0.05,0.08,0.11,0.08,0.19v10.05c0,0.78,0.24,1.4,0.71,1.88
			c0.48,0.48,1.1,0.72,1.88,0.72c0.78,0,1.4-0.24,1.88-0.72c0.48-0.48,0.71-1.1,0.71-1.88V7.4c0-0.07,0.03-0.14,0.08-0.19
			c0.05-0.05,0.11-0.08,0.19-0.08h2.57c0.07,0,0.14,0.03,0.19,0.08c0.05,0.05,0.08,0.11,0.08,0.19v10.03c0,1.04-0.24,1.96-0.71,2.76
			c-0.48,0.8-1.14,1.42-2,1.86s-1.85,0.66-2.98,0.66C270.25,22.71,269.26,22.49,268.4,22.05z"/>
		<path class="st1" d="M279.71,22.46c-0.05-0.05-0.08-0.11-0.08-0.19V7.4c0-0.07,0.03-0.14,0.08-0.19c0.05-0.05,0.11-0.08,0.19-0.08
			h5.5c1.1,0,2.06,0.19,2.89,0.58s1.47,0.94,1.92,1.64c0.45,0.7,0.68,1.52,0.68,2.44v6.07c0,0.92-0.23,1.74-0.68,2.44
			c-0.45,0.7-1.1,1.25-1.92,1.64s-1.79,0.58-2.89,0.58h-5.5C279.82,22.54,279.76,22.51,279.71,22.46z M282.84,19.88h2.66
			c0.67,0,1.22-0.23,1.64-0.68c0.42-0.45,0.63-1.06,0.65-1.83v-5.06c0-0.76-0.21-1.37-0.63-1.83c-0.42-0.45-0.98-0.68-1.68-0.68
			h-2.64c-0.07,0-0.11,0.04-0.11,0.11v9.86C282.73,19.84,282.77,19.88,282.84,19.88z"/>
		<path class="st1" d="M293.3,22.46c-0.05-0.05-0.08-0.11-0.08-0.19V7.4c0-0.07,0.03-0.14,0.08-0.19c0.05-0.05,0.11-0.08,0.19-0.08
			h2.57c0.07,0,0.14,0.03,0.19,0.08c0.05,0.05,0.08,0.11,0.08,0.19v14.87c0,0.07-0.03,0.14-0.08,0.19
			c-0.05,0.05-0.11,0.08-0.19,0.08h-2.57C293.41,22.54,293.35,22.51,293.3,22.46z"/>
		<path class="st1" d="M301.46,22.08c-0.87-0.47-1.55-1.13-2.04-1.97c-0.48-0.84-0.73-1.81-0.73-2.92v-4.71
			c0-1.08,0.24-2.05,0.73-2.88c0.48-0.84,1.16-1.48,2.04-1.95c0.87-0.46,1.88-0.69,3.02-0.69c1.16,0,2.17,0.23,3.05,0.69
			c0.87,0.46,1.55,1.11,2.03,1.95c0.48,0.84,0.73,1.8,0.73,2.88v4.71c0,1.1-0.24,2.08-0.73,2.93c-0.48,0.85-1.16,1.51-2.03,1.97
			c-0.87,0.46-1.89,0.69-3.05,0.69C303.34,22.78,302.34,22.55,301.46,22.08z M306.45,19.35c0.5-0.51,0.75-1.2,0.75-2.05v-4.84
			c0-0.85-0.25-1.54-0.74-2.06c-0.49-0.52-1.15-0.78-1.97-0.78c-0.81,0-1.46,0.26-1.95,0.78c-0.49,0.52-0.74,1.21-0.74,2.06v4.84
			c0,0.85,0.25,1.53,0.74,2.05c0.49,0.51,1.14,0.77,1.95,0.77S305.95,19.86,306.45,19.35z"/>
	</g>
</g>
<g>
</g>
<g>
</g>
<g>
</g>
<g>
</g>
<g>
</g>
<g>
</g>
<g>
</g>
<g>
</g>
<g>
</g>
<g>
</g>
<g>
</g>
<g>
</g>
<g>
</g>
<g>
</g>
<g>
</g>
</svg>
